PathFileType	4	(X/Y/Z)	Patient4_TMGait_0pt3_01_left_05.trc.trc
DataRate	CameraRate	NumFrames	NumMarkers	Units	OrigDataRate	OrigDataStartFrame	OrigNumFrames
52.830188679245	52.830188679245	5	33	mm	52.830188679245	53	       141
Frame#	Time	Sacral			L.Shoulder			Chest			R.Shoulder			Neck			R.ASIS			L.ASIS			R.Thigh.Superior			R.Thigh.Lateral			R.Thigh.Inferior			R.Patella			L.Thigh.Superior			L.Thigh.Lateral			L.Thigh.Inferior			L.Patella			L.Shank.Superior			L.Shank.Lateral			L.Shank.Inferior			R.Shank.Superior			R.Shank.Lateral			R.Shank.Inferior			R.Heel			R.Midfoot.Superior			R.Midfoot.Lateral			R.Toe			L.Heel			L.Midfoot.Lateral			L.Midfoot.Superior			L.Toe			L.Elbow			L.Wrist			R.Elbow			R.Wrist			
		X1	Y1	Z1	X2	Y2	Z2	X3	Y3	Z3	X4	Y4	Z4	X5	Y5	Z5	X6	Y6	Z6	X7	Y7	Z7	X8	Y8	Z8	X9	Y9	Z9	X10	Y10	Z10	X11	Y11	Z11	X12	Y12	Z12	X13	Y13	Z13	X14	Y14	Z14	X15	Y15	Z15	X16	Y16	Z16	X17	Y17	Z17	X18	Y18	Z18	X19	Y19	Z19	X20	Y20	Z20	X21	Y21	Z21	X22	Y22	Z22	X23	Y23	Z23	X24	Y24	Z24	X25	Y25	Z25	X26	Y26	Z26	X27	Y27	Z27	X28	Y28	Z28	X29	Y29	Z29	X30	Y30	Z30	X31	Y31	Z31	X32	Y32	Z32	X33	Y33	Z33	

53	9.654285714286	805.356952232412	998.763711495079	476.004762267084	960.523283295996	1431.391054539785	288.329749741223	1073.586318391310	1365.847929292309	443.651754694847	997.278873840911	1439.148504843183	620.600750865865	952.611447529419	1492.485376234489	446.403148861076	1038.485793727865	936.215660531545	584.201550957391	1016.081019133183	960.487192115440	311.425258488867	1071.707531327122	731.201758617720	567.247598032372	990.658554960763	625.756628795472	636.473047784476	1068.076091930413	563.356071399272	562.197648049224	1056.854570235134	456.666282498871	587.139331238957	1073.479159980436	750.111994696183	350.983007679537	990.429844482407	626.149919262875	297.726219149355	1076.191962159545	553.528443814700	365.259700541277	1078.340174944104	480.742345738420	375.850030088425	1042.081992901808	407.982798847826	370.916492123293	942.895527352059	301.314900282605	322.550966889423	980.078510684020	187.713753460700	396.501590083809	978.823629075982	391.608307077534	595.998615977723	857.034757764571	352.951604263855	654.480609021651	846.362022532999	241.215218133772	609.581209653007	647.814840583553	171.595408483939	574.190634085306	812.467730015433	122.406230100181	632.780722433667	702.477948479272	124.058894633859	658.050143596671	876.967924100284	32.948598191264	675.147148168006	839.638534625137	38.874509165846	438.818177821542	912.421962529019	36.472111151358	357.380642942576	997.445420361101	95.762511550465	384.109278368973	1124.307706868044	41.505919520167	351.929338188004	941.701191272862	1086.477666244778	153.046533170807	1091.770754901911	872.405049930349	158.632237404600	1087.689204887794	1103.529394701883	740.651372079873	1316.881530483486	982.325500429172	754.205843002240	
54	9.673214285714	804.131579748987	997.161725010459	471.680361858119	961.926461225422	1430.738406940959	286.977232108145	1072.865226606931	1364.656189128418	443.553881696979	994.212169554853	1436.999592545246	619.926317401091	952.109804669906	1491.295188493273	445.363179708630	1036.663749424181	935.407134457948	582.017653605332	1016.889399297673	959.605281402541	309.054676598981	1075.687648996036	732.463881449500	564.325239309880	997.984426221495	625.275768866804	633.496533145610	1077.184838557100	564.607353002615	559.040709689156	1067.882263387956	456.706216244458	584.548721579070	1073.846188327778	748.828483240011	349.595108661598	990.956707300928	624.658097020702	296.449960611909	1076.051074679224	552.102118677804	365.081664273626	1077.907900815904	479.010271201363	375.900627788982	1040.694844631512	406.323748533452	370.866675483521	940.559577741776	300.641350990298	322.337652203064	975.899646272102	186.875901677709	396.705131925158	988.286589696992	392.022409708469	593.259577542880	864.905801598520	356.892000361618	650.762186692324	851.769043313469	245.254410440652	606.706428195661	652.689418434124	183.452222267875	568.938211222120	813.777733668427	126.060731716688	630.433750387848	703.544740649300	133.998546495921	654.045298596621	872.094598145116	32.337371357755	674.818873549319	833.982417934117	38.902000528576	438.789939387149	906.778959773183	36.493425392039	357.385796258605	991.873224905522	95.689476406572	384.242210991030	1118.686445616759	41.306587491057	351.923850065082	952.499237489437	1086.395766999621	148.976931205972	1106.103524241918	874.827240550041	155.654438264357	1072.213400436968	1096.797570406252	738.691146396517	1290.141462776478	956.922339776354	756.830258481819	
55	9.692142857143	802.824388762618	995.443961564977	467.570734175072	963.400793207903	1429.995710019091	285.930035570881	1072.139926337361	1363.313144690059	443.746776893325	991.075349467881	1434.612689787646	619.517805241242	951.651288264993	1489.987964822277	444.624937819581	1034.790386879163	934.515387295358	580.083725203238	1017.781003665261	958.646372597716	306.864733598409	1079.672231408703	733.948483282105	561.464977196737	1005.474296415353	624.973512671306	630.556513786023	1086.425080264271	566.218995010006	555.844609041378	1079.159032913392	457.134999891294	581.761886320358	1074.251909127837	747.463757955333	348.391466516857	991.585662091616	623.069436577327	295.335126528617	1076.062128440813	550.602016221343	365.047995449772	1077.652433215482	477.189458507916	376.084289074659	1039.438607605994	404.583432582603	370.924765405982	938.315086193710	299.945499726253	322.201456054544	971.756972657707	185.996402302795	396.922371671908	998.110597996593	392.706215941553	590.321469765448	873.179696366107	360.913366368753	646.707189483515	857.831352502841	249.364496522022	603.459063442313	658.471846515782	194.889113823464	563.097221109770	815.999608425289	129.952330135025	627.607323814268	705.598571438853	143.753231597174	649.435012450068	868.275673435260	31.806267735242	674.067938538935	828.324147880936	38.939465841098	438.758540964131	901.139760318220	36.514212286824	357.389195421123	986.307005786429	95.607520861861	384.376347956420	1113.069101266283	41.098736497675	351.914715750913	963.137050642810	1086.358595641485	145.592289656773	1120.673701479297	877.684411803738	153.357239217746	1056.311933448456	1090.287400301107	736.580909289171	1261.041312874542	932.265117726920	758.613557600282	
56	9.711071428571	801.489289812037	993.695793784299	463.723474298582	964.970499867326	1429.228986524482	285.187265996426	1071.443699173995	1361.892975581321	444.223155109534	987.912904674675	1432.090703178212	619.358822952400	951.262002174860	1488.637931182252	444.178424213545	1032.889998595589	933.604703805526	578.421855845006	1018.765125649948	957.659127260769	304.882969687057	1083.535200359676	735.679770688676	558.731922224428	1012.925711886911	624.916203723659	627.725191230109	1095.564664594695	568.214088388845	552.703712708122	1090.426974006243	458.001694920065	578.877386562973	1074.623923645673	746.029776296528	347.326650767581	992.168636947176	621.442391884574	294.353166771505	1076.075209164210	549.050133322391	365.071322695491	1077.403804405003	475.323700135898	376.315648208030	1038.176831767261	402.814529170479	371.024540461391	936.046950718009	299.246105887052	322.102484116450	967.600174114670	185.107480935152	397.119597028816	1008.096410950344	393.682798385017	587.272405441808	881.684011103365	364.871915072882	642.419301757207	864.503703601473	253.365173805860	599.918265259030	665.029867114717	205.273889029393	556.895692390455	819.333926714503	133.902770488578	624.335152309368	708.775584790202	152.747343271329	644.361084773714	866.129681373153	31.402157753091	672.764201883803	822.659507168697	38.987782541767	438.721155074368	895.500928785223	36.532261896803	357.386233129867	980.741361001709	95.518489514999	384.496500559486	1107.451927938932	40.888521836977	351.897745237336	973.512028533772	1086.421035754798	142.865470711835	1135.474232781287	881.154200462731	151.724514954816	1040.046944036454	1084.173962431971	734.362076402334	1229.799165786984	908.872635856605	759.467443109791	
57	9.730000000000	800.185614708460	992.015947210640	460.179894682919	966.661254771493	1428.510606903844	284.740986885701	1070.810057965924	1360.480843986073	444.972846435011	984.772129991973	1429.558252344523	619.426866356136	950.969014207996	1487.329674996970	444.005267002132	1030.985230166550	932.748467237038	577.055216006619	1019.830863687990	956.695095295404	303.149851098543	1087.153163341344	737.669718204797	556.196572085244	1020.134515938388	625.158577732098	625.079811090495	1104.366751428867	570.594656937561	549.718193703346	1101.426276884352	459.342237184925	576.009961423385	1074.887229529256	744.550893041897	346.371347941142	992.554337284096	619.846741461408	293.482085092191	1075.926019764754	547.478451566857	365.080087263654	1076.975567635323	473.467417936415	376.523012854993	1036.760775736535	401.080166073032	371.109826518994	933.634871763565	298.567928712660	322.006519691874	963.376537552434	184.246199045818	397.270006601026	1018.055877335236	394.951520994806	584.218942131738	890.275421561988	368.570100996532	638.041955908870	871.772241763998	257.032524655744	596.195354831250	672.267298978953	213.917699129050	550.615652651460	824.022018936268	137.672551283461	620.694425762703	713.253256420783	160.349645796131	639.027098874159	866.352671907714	31.155725665222	670.821563341918	816.984706310281	39.047252178522	438.675338679809	889.859086167126	36.546494042103	357.373121161911	975.170691895531	95.426053030482	384.589249684139	1101.830979169373	40.683394029271	351.869214411181	983.544771812026	1086.643049479402	140.753061029060	1150.479919496339	885.405487384850	150.733286669481	1023.460513546464	1078.649126530925	732.085272202457	1196.705931077202	887.260995707839	759.344807611027	
